<svg width="48" height="48" viewBox="0 0 48 48" fill="none" xmlns="http://www.w3.org/2000/svg">
<path id="chart" fill-rule="evenodd" clip-rule="evenodd"
d="M22.5859 2.58579C22.9609 2.21071 23.4696 2 24.0001 2C26.8892 2 29.7499 2.56905 32.4191 3.67465C35.0883 4.78025 37.5135 6.40076 39.5564 8.44365C41.5993 10.4865 43.2198 12.9118 44.3254 15.581C45.431 18.2501 46.0001 21.1109 46.0001 24C46.0001 25.1046 45.1046 26 44.0001 26H24.0001C22.8955 26 22.0001 25.1046 22.0001 24V4C22.0001 3.46957 22.2108 2.96086 22.5859 2.58579ZM26.0001 6.11145V22H41.8886C41.7011 20.3228 41.2783 18.677 40.6299 17.1117C39.7253 14.9278 38.3995 12.9435 36.728 11.2721C35.0565 9.60062 33.0722 8.27475 30.8884 7.37017C29.3231 6.7218 27.6772 6.29897 26.0001 6.11145ZM17.8331 4.86005C18.2749 5.87242 17.8124 7.05125 16.8 7.49303C14.1052 8.669 11.7395 10.4872 9.90968 12.7887C8.07989 15.0902 6.84173 17.8048 6.30347 20.6954C5.7652 23.5859 5.94321 26.5643 6.82194 29.3701C7.70066 32.176 9.25334 34.7239 11.3442 36.791C13.4351 38.8582 16.0006 40.3816 18.8163 41.2283C21.632 42.0749 24.6122 42.2189 27.4964 41.6476C30.3806 41.0764 33.0809 39.8073 35.3614 37.9514C37.6418 36.0954 39.4329 33.7091 40.578 31.001C41.0082 29.9837 42.1817 29.5077 43.199 29.9379C44.2164 30.3681 44.6923 31.5415 44.2622 32.5589C42.8626 35.8688 40.6735 38.7854 37.8863 41.0538C35.0991 43.3221 31.7987 44.8732 28.2735 45.5714C24.7484 46.2696 21.1059 46.0936 17.6645 45.0589C14.2231 44.0241 11.0875 42.1621 8.532 39.6355C5.97646 37.109 4.07875 33.995 3.00475 30.5656C1.93076 27.1362 1.71319 23.496 2.37107 19.9631C3.02895 16.4302 4.54225 13.1123 6.77866 10.2994C9.01507 7.48645 11.9065 5.2642 15.2002 3.8269C16.2125 3.38512 17.3914 3.84767 17.8331 4.86005Z"
fill="#3B42E3" />
</svg>