<svg width="48" height="48" viewBox="0 0 48 48" fill="none" xmlns="http://www.w3.org/2000/svg">
<path id="database" fill-rule="evenodd" clip-rule="evenodd" d="M8 10C8 10 8.00035 10.0117 8.00611 10.0306C8.0129 10.0529 8.02966 10.0969 8.07015 10.1629C8.15504 10.3012 8.32816 10.5091 8.65248 10.7647C9.31283 11.2851 10.3923 11.8412 11.9045 12.3453C14.908 13.3465 19.1846 14 24 14C28.8154 14 33.092 13.3465 36.0955 12.3453C37.6077 11.8412 38.6872 11.2851 39.3475 10.7647C39.6718 10.5091 39.845 10.3012 39.9299 10.1629C39.9703 10.0969 39.9871 10.0529 39.9939 10.0306C39.9997 10.0115 40 10.0005 40 10.0005C40 10.0005 40.0002 9.99015 39.9939 9.96945C39.9871 9.94716 39.9703 9.90313 39.9299 9.83717C39.845 9.69888 39.6718 9.49097 39.3475 9.23538C38.6872 8.71496 37.6077 8.15883 36.0955 7.65476C33.092 6.65358 28.8154 6.00003 24 6.00003C19.1846 6.00003 14.908 6.65358 11.9045 7.65476C10.3923 8.15883 9.31283 8.71496 8.65248 9.23538C8.32816 9.49097 8.15504 9.69888 8.07015 9.83717C8.02966 9.90313 8.0129 9.94716 8.00611 9.96945C7.99997 9.98961 8 10 8 10ZM40 15.0532C39.1975 15.4636 38.3067 15.8246 37.3604 16.14C33.8492 17.3104 29.1257 18 24 18C18.8743 18 14.1508 17.3104 10.6396 16.14C9.69331 15.8246 8.80246 15.4636 8 15.0532V24C8 24 8.00016 24.0141 8.0068 24.036C8.0139 24.0595 8.03089 24.1042 8.07115 24.1703C8.15544 24.3086 8.32696 24.5159 8.64838 24.7706C9.30318 25.2895 10.3758 25.8446 11.8833 26.3479C14.8778 27.3476 19.1535 28 24 28C28.8465 28 33.1222 27.3476 36.1167 26.3479C37.6242 25.8446 38.6968 25.2895 39.3516 24.7706C39.673 24.5159 39.8446 24.3086 39.9288 24.1703C39.9691 24.1042 39.9861 24.0595 39.9932 24.036C39.9998 24.0141 40 24 40 24V15.0532ZM44 10C44 8.29614 42.9622 6.99121 41.8234 6.09374C40.6621 5.1785 39.1055 4.44174 37.3604 3.86002C33.8492 2.68962 29.1257 2.00003 24 2.00003C18.8743 2.00003 14.1508 2.68962 10.6396 3.86002C8.89447 4.44174 7.33792 5.1785 6.17658 6.09374C5.03779 6.99121 4 8.29614 4 10V38C4 39.6988 5.02639 41.0041 6.16412 41.9057C7.32182 42.8231 8.87425 43.5604 10.6167 44.1421C14.1222 45.3124 18.8465 46 24 46C29.1535 46 33.8778 45.3124 37.3833 44.1421C39.1258 43.5604 40.6782 42.8231 41.8359 41.9057C42.9736 41.0041 44 39.6988 44 38V10ZM40 29.0636C39.2041 29.4707 38.3213 29.829 37.3833 30.1421C33.8778 31.3124 29.1535 32 24 32C18.8465 32 14.1222 31.3124 10.6167 30.1421C9.67875 29.829 8.79588 29.4707 8 29.0636V38C8 38 8.00016 38.0141 8.0068 38.0361C8.0139 38.0596 8.03089 38.1042 8.07115 38.1703C8.15544 38.3086 8.32696 38.5159 8.64838 38.7706C9.30318 39.2895 10.3758 39.8447 11.8833 40.348C14.8778 41.3477 19.1535 42 24 42C28.8465 42 33.1222 41.3477 36.1167 40.348C37.6242 39.8447 38.6968 39.2895 39.3516 38.7706C39.673 38.5159 39.8446 38.3086 39.9288 38.1703C39.9691 38.1042 39.9861 38.0596 39.9932 38.0361C39.9998 38.0141 40 38 40 38V29.0636Z" fill="#3B42E3"/>
</svg>
