      <svg width="48" height="48" viewBox="0 0 48 48" fill="none" xmlns="http://www.w3.org/2000/svg">
        <g clip-path="url(#clip0_131_390)">
          <path id="dollar" fill-rule="evenodd" clip-rule="evenodd"
            d="M24 0C25.1046 0 26 0.89543 26 2V8.00006H34C35.1046 8.00006 36 8.89549 36 10.0001C36 11.1046 35.1046 12.0001 34 12.0001H26V22.0001H29C31.3869 22.0001 33.6761 22.9483 35.364 24.6361C37.0518 26.3239 38 28.6131 38 31.0001C38 33.387 37.0518 35.6762 35.364 37.364C33.6761 39.0519 31.3869 40.0001 29 40.0001H26V46C26 47.1046 25.1046 48 24 48C22.8954 48 22 47.1046 22 46V40.0001H12C10.8954 40.0001 10 39.1046 10 38.0001C10 36.8955 10.8954 36.0001 12 36.0001H22V26.0001H19C16.6131 26.0001 14.3239 25.0519 12.636 23.364C10.9482 21.6762 10 19.387 10 17.0001C10 14.6131 10.9482 12.3239 12.636 10.6361C14.3239 8.94828 16.6131 8.00006 19 8.00006H22V2C22 0.89543 22.8954 0 24 0ZM22 12.0001H19C17.6739 12.0001 16.4021 12.5268 15.4645 13.4645C14.5268 14.4022 14 15.674 14 17.0001C14 18.3261 14.5268 19.5979 15.4645 20.5356C16.4021 21.4733 17.6739 22.0001 19 22.0001H22V12.0001ZM26 26.0001V36.0001H29C30.3261 36.0001 31.5979 35.4733 32.5355 34.5356C33.4732 33.5979 34 32.3262 34 31.0001C34 29.674 33.4732 28.4022 32.5355 27.4645C31.5979 26.5268 30.3261 26.0001 29 26.0001H26Z"
            fill="#3B42E3" />
        </g>
      </svg>
