<svg width="24" height="24" viewBox="0 0 48 48" fill="none" xmlns="http://www.w3.org/2000/svg">
<g clip-path="url(#clip0_135_1560)">
<path id="icon-cloud" d="M18 42C9.71999 42 2.63999 36.48 0.59999 28.56C-1.92001 18.96 3.95999 9.12 13.56 6.6C22.68 4.2 31.92 9.36 35.04 18H36C42.6 18 48 23.4 48 30C48 36.6 42.6 42 36 42H18ZM18 9.96C16.8 9.96 15.72 10.08 14.52 10.44C7.07999 12.36 2.51999 20.04 4.43999 27.48C5.99999 33.72 11.64 38.04 18 38.04H36C40.44 38.04 44.04 34.44 44.04 30C44.04 25.56 40.44 21.96 36 21.96H33.48C32.52 21.96 31.8 21.36 31.56 20.52C29.88 14.16 24.24 9.96 18 9.96Z" fill="#7384A1"/>
</g>
</svg>