<svg width="24" height="24" viewBox="0 0 48 48" fill="none" xmlns="http://www.w3.org/2000/svg">
<g clip-path="url(#clip0_135_1564)">
<path id="icon-cpu" fill-rule="evenodd" clip-rule="evenodd" d="M18 -3.05176e-05C19.1046 -3.05176e-05 20 0.8954 20 1.99997V5.99997H28V1.99997C28 0.8954 28.8955 -3.05176e-05 30 -3.05176e-05C31.1046 -3.05176e-05 32 0.8954 32 1.99997V5.99997H36C39.3137 5.99997 42 8.68626 42 12V16H46.0001C47.1046 16 48.0001 16.8954 48.0001 18C48.0001 19.1046 47.1046 20 46.0001 20H42V26H46.0001C47.1046 26 48.0001 26.8955 48.0001 28C48.0001 29.1046 47.1046 30 46.0001 30H42V36C42 39.3137 39.3137 42 36 42H32V46C32 47.1046 31.1046 48 30 48C28.8955 48 28 47.1046 28 46V42H20V46C20 47.1046 19.1046 48 18 48C16.8955 48 16 47.1046 16 46V42H12C8.68629 42 6 39.3137 6 36V30H2C0.89543 30 0 29.1046 0 28C0 26.8955 0.89543 26 2 26H6V20H2C0.89543 20 0 19.1046 0 18C0 16.8954 0.89543 16 2 16H6V12C6 8.68626 8.68629 5.99997 12 5.99997H16V1.99997C16 0.8954 16.8955 -3.05176e-05 18 -3.05176e-05ZM12 9.99997C10.8954 9.99997 10 10.8954 10 12V36C10 37.1045 10.8954 38 12 38H36C37.1046 38 38 37.1045 38 36V12C38 10.8954 37.1046 9.99997 36 9.99997H12ZM16 18C16 16.8954 16.8955 16 18 16H30C31.1046 16 32 16.8954 32 18V30C32 31.1046 31.1046 32 30 32H18C16.8955 32 16 31.1046 16 30V18ZM20 20V28H28V20H20Z" fill="#7384A1"/>
</g>
</svg>