<svg  width="24" height="24" viewBox="0 0 48 48"  xmlns="http://www.w3.org/2000/svg">
<g clip-path="url(#clip0_135_1561)">
<path id="icon-award" fill-rule="evenodd" clip-rule="evenodd" d="M24 3.99998C17.3726 3.99998 12 9.37257 12 16C12 22.6274 17.3726 28 24 28C26.3277 28 28.5006 27.3372 30.3404 26.1901C30.4397 26.1116 30.5469 26.0421 30.661 25.9831C33.8801 23.8309 36 20.163 36 16C36 9.37257 30.6274 3.99998 24 3.99998ZM33.7232 28.7077C37.5393 25.7834 40 21.1791 40 16C40 7.16343 32.8366 -1.52588e-05 24 -1.52588e-05C15.1634 -1.52588e-05 8 7.16343 8 16C8 21.18 10.4616 25.7852 14.2789 28.7093L12.0173 45.7367C11.9162 46.498 12.26 47.25 12.9019 47.6716C13.5437 48.0933 14.3704 48.1102 15.0289 47.715L23.9999 42.3324L32.9709 47.715C33.6294 48.1101 34.456 48.0933 35.0979 47.6717C35.7398 47.2501 36.0836 46.4983 35.9826 45.737L33.7232 28.7077ZM29.9721 30.8482C28.1268 31.5911 26.1112 32 24 32C21.8896 32 19.8746 31.5914 18.0299 30.849L16.5288 42.1503L22.9709 38.2851C23.6043 37.905 24.3956 37.905 25.0289 38.2851L31.4717 42.1507L29.9721 30.8482Z" fill="#7384A1"/>
</g>
</svg>