<svg width="24" height="24" viewBox="0 0 24 24" fill="none" xmlns="http://www.w3.org/2000/svg">
<path id="instagram" fill-rule="evenodd" clip-rule="evenodd" d="M7 3C4.79086 3 3 4.79086 3 7V17C3 19.2091 4.79086 21 7 21H17C19.2091 21 21 19.2091 21 17V7C21 4.79086 19.2091 3 17 3H7ZM1 7C1 3.68629 3.68629 1 7 1H17C20.3137 1 23 3.68629 23 7V17C23 20.3137 20.3137 23 17 23H7C3.68629 23 1 20.3137 1 17V7ZM16.5 6.5C16.5 5.94772 16.9477 5.5 17.5 5.5H17.51C18.0623 5.5 18.51 5.94772 18.51 6.5C18.51 7.05228 18.0623 7.5 17.51 7.5H17.5C16.9477 7.5 16.5 7.05228 16.5 6.5ZM12.4833 8.9892C11.8591 8.89664 11.2216 9.00326 10.6615 9.29388C10.1014 9.58451 9.64723 10.0443 9.36354 10.608C9.07984 11.1716 8.98109 11.8104 9.08134 12.4334C9.18159 13.0564 9.47573 13.6319 9.92192 14.0781C10.3681 14.5243 10.9436 14.8184 11.5666 14.9186C12.1896 15.0189 12.8284 14.9202 13.392 14.6365C13.9556 14.3528 14.4155 13.8986 14.7061 13.3385C14.9967 12.7784 15.1033 12.1409 15.0108 11.5167C14.9164 10.88 14.6197 10.2906 14.1646 9.83543C13.7094 9.3803 13.12 9.08361 12.4833 8.9892ZM9.74039 7.51863C10.6739 7.03426 11.7363 6.85657 12.7767 7.01083C13.8378 7.16819 14.8202 7.66266 15.5788 8.42122C16.3373 9.17977 16.8318 10.1622 16.9892 11.2233C17.1434 12.2636 16.9657 13.3261 16.4814 14.2596C15.997 15.1931 15.2306 15.9501 14.2912 16.4229C13.3518 16.8958 12.2872 17.0603 11.2489 16.8932C10.2106 16.7262 9.25136 16.2359 8.50771 15.4923C7.76405 14.7486 7.27382 13.7894 7.10674 12.7511C6.93966 11.7128 7.10424 10.6482 7.57707 9.7088C8.04989 8.7694 8.80689 8.00301 9.74039 7.51863Z" fill="#E4EBF5"/>
</svg>
