<svg width="48" height="48" viewBox="0 0 48 48" fill="none" xmlns="http://www.w3.org/2000/svg">
<path id="monitor" fill-rule="evenodd" clip-rule="evenodd" d="M8.00006 8C6.89549 8 6.00006 8.89543 6.00006 10V30C6.00006 31.1046 6.89549 32 8.00006 32H40.0001C41.1046 32 42.0001 31.1046 42.0001 30V10C42.0001 8.89543 41.1046 8 40.0001 8H8.00006ZM2.00006 10C2.00006 6.68629 4.68635 4 8.00006 4H40.0001C43.3138 4 46.0001 6.68629 46.0001 10V30C46.0001 33.3137 43.3138 36 40.0001 36H26V40H32.0001C33.1046 40 34.0001 40.8954 34.0001 42C34.0001 43.1046 33.1046 44 32.0001 44H24.0119C24.0079 44 24.004 44 24 44C23.9961 44 23.9921 44 23.9882 44H16.0001C14.8955 44 14.0001 43.1046 14.0001 42C14.0001 40.8954 14.8955 40 16.0001 40H22V36H8.00006C4.68635 36 2.00006 33.3137 2.00006 30V10Z" fill="#3B42E3"/>
</svg>
