<svg width="48" height="48" viewBox="0 0 48 48" fill="none" xmlns="http://www.w3.org/2000/svg">
<path id="shield" fill-rule="evenodd" clip-rule="evenodd" d="M23.2978 2.12734C23.7505 1.95755 24.2495 1.95755 24.7022 2.12734L40.7022 8.12734C41.4829 8.42007 42 9.16631 42 10V24C42 30.8929 37.4365 36.4006 33.317 40.0052C31.2152 41.8442 29.1229 43.2817 27.56 44.2585C26.7765 44.7482 26.1206 45.1255 25.6561 45.3826C25.4237 45.5112 25.2389 45.61 25.1094 45.678C25.0446 45.712 24.9937 45.7383 24.9575 45.7568L24.9145 45.7787L24.9016 45.7853L24.8973 45.7874C24.8966 45.7878 24.8944 45.7889 24 44C23.1056 45.7889 23.105 45.7886 23.1043 45.7882L23.0984 45.7853L23.0855 45.7787L23.0425 45.7568C23.0063 45.7383 22.9554 45.712 22.8906 45.678C22.7611 45.61 22.5763 45.5112 22.3439 45.3826C21.8794 45.1255 21.2235 44.7482 20.44 44.2585C18.8771 43.2817 16.7848 41.8442 14.683 40.0052C10.5635 36.4006 6 30.8929 6 24V10C6 9.16631 6.51715 8.42007 7.29775 8.12734L23.2978 2.12734ZM24 44L23.1043 45.7882C23.6674 46.0698 24.3314 46.0704 24.8944 45.7889L24 44ZM24 41.7255C24.3833 41.5083 24.8734 41.2206 25.44 40.8665C26.8771 39.9683 28.7848 38.6558 30.683 36.9948C34.5635 33.5994 38 29.1071 38 24V11.386L24 6.136L10 11.386V24C10 29.1071 13.4365 33.5994 17.317 36.9948C19.2152 38.6558 21.1229 39.9683 22.56 40.8665C23.1266 41.2206 23.6167 41.5083 24 41.7255Z" fill="#3B42E3"/>
</svg>
