<svg width="48" height="48" viewBox="0 0 48 48" fill="none" xmlns="http://www.w3.org/2000/svg">
<g clip-path="url(#clip0_135_1565)">
<path id="trending-down" fill-rule="evenodd" clip-rule="evenodd" d="M0.585786 10.5858C1.36683 9.80474 2.63317 9.80474 3.41421 10.5858L17 24.1716L25.5858 15.5858C26.3668 14.8047 27.6332 14.8047 28.4142 15.5858L44 31.1716L44.0001 24C44.0001 22.8954 44.8955 22 46.0001 22C47.1046 22 48.0001 22.8954 48.0001 24L48 36C48 37.1046 47.1046 38 46 38H34.0001C32.8955 38 32.0001 37.1046 32.0001 36C32.0001 34.8954 32.8955 34 34.0001 34H41.1716L27 19.8284L18.4142 28.4142C17.6332 29.1953 16.3668 29.1953 15.5858 28.4142L0.585786 13.4142C-0.195262 12.6332 -0.195262 11.3668 0.585786 10.5858Z" fill="#3B42E3"/>
</g>
</svg>
