<svg width="48" height="48" viewBox="0 0 48 48" fill="none" xmlns="http://www.w3.org/2000/svg">
<g clip-path="url(#clip0_131_454)">
<path id="upload-cloud" fill-rule="evenodd" clip-rule="evenodd" d="M17.3265 4.01709C20.0455 3.91691 22.7518 4.43442 25.242 5.53072C27.7322 6.62702 29.9414 8.27357 31.7036 10.3466C33.1265 12.0204 34.2281 13.9372 34.9581 16H35.9999C38.666 16.0017 41.2569 16.8913 43.3613 18.5282C45.4656 20.1652 46.9649 22.4563 47.6225 25.04C48.2802 27.6237 48.0586 30.3528 46.9929 32.7967C45.9272 35.2405 44.0781 37.2598 41.7372 38.536C40.7674 39.0647 39.5526 38.7071 39.0239 37.7373C38.4952 36.7675 38.8528 35.5527 39.8226 35.024C41.3831 34.1732 42.6159 32.827 43.3264 31.1978C44.0369 29.5686 44.1845 27.7491 43.7461 26.0267C43.3077 24.3042 42.3082 22.7768 40.9053 21.6855C39.5024 20.5942 37.776 20.0011 35.9986 20H33.4799C32.5682 20 31.7718 19.3833 31.5436 18.5006C31.0139 16.4518 30.0266 14.5497 28.656 12.9373C27.2854 11.325 25.5671 10.0443 23.6303 9.19165C21.6935 8.33897 19.5886 7.93646 17.4738 8.01438C15.359 8.09229 13.2895 8.64861 11.4206 9.6415C9.55184 10.6344 7.93243 12.038 6.68418 13.7469C5.43592 15.4557 4.5913 17.4253 4.2138 19.5075C3.83631 21.5898 3.93577 23.7305 4.50471 25.7688C5.07365 27.8071 6.09726 29.6898 7.49859 31.2756C8.23003 32.1033 8.152 33.3672 7.32431 34.0986C6.49662 34.8301 5.23269 34.752 4.50126 33.9243C2.69955 31.8855 1.38348 29.4648 0.651983 26.8442C-0.0795099 24.2235 -0.20739 21.4712 0.277958 18.794C0.763306 16.1168 1.84925 13.5845 3.45415 11.3874C5.05905 9.19033 7.14115 7.38567 9.5439 6.1091C11.9467 4.83253 14.6075 4.11727 17.3265 4.01709ZM24 22C24.5304 22 25.0391 22.2107 25.4142 22.5858L33.4142 30.5858C34.1952 31.3668 34.1952 32.6332 33.4142 33.4142C32.6331 34.1953 31.3668 34.1953 30.5857 33.4142L25.9999 28.8284L25.9999 42C25.9999 43.1046 25.1045 44 23.9999 44C22.8953 44 21.9999 43.1046 21.9999 42L21.9999 28.8284L17.4142 33.4142C16.6331 34.1953 15.3668 34.1953 14.5857 33.4142C13.8047 32.6332 13.8047 31.3668 14.5857 30.5858L22.5857 22.5858C22.9608 22.2107 23.4695 22 24 22Z" fill="#3B42E3"/>
</g>
</svg>
